<?xml version="1.0" encoding="UTF-8" standalone="no"?>
<!DOCTYPE svg PUBLIC "-//W3C//DTD SVG 1.1//EN"
 "http://www.w3.org/Graphics/SVG/1.1/DTD/svg11.dtd">
<!-- Generated by graphviz version 2.40.1 (20161225.0304)
 -->
<!-- Title: dependencies Pages: 1 -->
<svg width="504pt" height="284pt"
 viewBox="0.00 0.00 504.00 284.00" xmlns="http://www.w3.org/2000/svg" xmlns:xlink="http://www.w3.org/1999/xlink">
<g id="graph0" class="graph" transform="scale(1 1) rotate(0) translate(4 280)">
<title>dependencies</title>
<polygon fill="#ffffff" stroke="transparent" points="-4,4 -4,-280 500,-280 500,4 -4,4"/>
<text text-anchor="start" x="227.0091" y="-42.4" font-family="sans-serif" font-weight="bold" font-size="14.00" fill="#000000">Legend</text>
<polygon fill="#ffffb3" stroke="transparent" points="14,-10 14,-30 34,-30 34,-10 14,-10"/>
<text text-anchor="start" x="37.629" y="-15.4" font-family="sans-serif" font-size="14.00" fill="#000000"> &#160;Declarations</text>
<polygon fill="#8dd3c7" stroke="transparent" points="127,-10 127,-30 147,-30 147,-10 127,-10"/>
<text text-anchor="start" x="150.7251" y="-15.4" font-family="sans-serif" font-size="14.00" fill="#000000"> &#160;Module</text>
<polygon fill="#80b1d3" stroke="transparent" points="213,-10 213,-30 233,-30 233,-10 213,-10"/>
<text text-anchor="start" x="236.7812" y="-15.4" font-family="sans-serif" font-size="14.00" fill="#000000"> &#160;Bootstrap</text>
<polygon fill="#fdb462" stroke="transparent" points="310,-10 310,-30 330,-30 330,-10 310,-10"/>
<text text-anchor="start" x="333.6732" y="-15.4" font-family="sans-serif" font-size="14.00" fill="#000000"> &#160;Providers</text>
<polygon fill="#fb8072" stroke="transparent" points="406,-10 406,-30 426,-30 426,-10 406,-10"/>
<text text-anchor="start" x="429.7258" y="-15.4" font-family="sans-serif" font-size="14.00" fill="#000000"> &#160;Exports</text>
<g id="clust1" class="cluster">
<title>cluster_SharedModule</title>
<polygon fill="none" stroke="#000000" stroke-dasharray="1,5" points="126,-70 126,-268 370,-268 370,-70 126,-70"/>
</g>
<g id="clust3" class="cluster">
<title>cluster_SharedModule_imports</title>
<polygon fill="none" stroke="#000000" points="138,-78 138,-130 359,-130 359,-78 138,-78"/>
</g>
<g id="clust4" class="cluster">
<title>cluster_SharedModule_exports</title>
<polygon fill="none" stroke="#000000" points="134,-208 134,-260 362,-260 362,-208 134,-208"/>
</g>
<!-- ApiModule -->
<g id="node1" class="node">
<title>ApiModule</title>
<polygon fill="#8dd3c7" stroke="#000000" points="351.0483,-122 348.0483,-126 327.0483,-126 324.0483,-122 270.9517,-122 270.9517,-86 351.0483,-86 351.0483,-122"/>
<text text-anchor="middle" x="311" y="-99.8" font-family="Times,serif" font-size="14.00" fill="#000000">ApiModule</text>
</g>
<!-- SharedModule -->
<g id="node3" class="node">
<title>SharedModule</title>
<polygon fill="#8dd3c7" stroke="#000000" points="249.4231,-187 246.4231,-191 225.4231,-191 222.4231,-187 150.5769,-187 150.5769,-151 249.4231,-151 249.4231,-187"/>
<text text-anchor="middle" x="200" y="-164.8" font-family="Times,serif" font-size="14.00" fill="#000000">SharedModule</text>
</g>
<!-- ApiModule&#45;&gt;SharedModule -->
<g id="edge1" class="edge">
<title>ApiModule&#45;&gt;SharedModule</title>
<path fill="none" stroke="#000000" d="M324.4245,-122.0225C324.4245,-139.3734 324.4245,-163 324.4245,-163 324.4245,-163 259.5334,-163 259.5334,-163"/>
<polygon fill="#000000" stroke="#000000" points="259.5334,-159.5001 249.5334,-163 259.5333,-166.5001 259.5334,-159.5001"/>
</g>
<!-- MaterialModule -->
<g id="node2" class="node">
<title>MaterialModule</title>
<polygon fill="#8dd3c7" stroke="#000000" points="252.4706,-122 249.4706,-126 228.4706,-126 225.4706,-122 145.5294,-122 145.5294,-86 252.4706,-86 252.4706,-122"/>
<text text-anchor="middle" x="199" y="-99.8" font-family="Times,serif" font-size="14.00" fill="#000000">MaterialModule</text>
</g>
<!-- MaterialModule&#45;&gt;SharedModule -->
<g id="edge2" class="edge">
<title>MaterialModule&#45;&gt;SharedModule</title>
<path fill="none" stroke="#000000" d="M200,-122.1061C200,-122.1061 200,-140.991 200,-140.991"/>
<polygon fill="#000000" stroke="#000000" points="196.5001,-140.9909 200,-150.991 203.5001,-140.991 196.5001,-140.9909"/>
</g>
<!-- ApiModule  -->
<g id="node4" class="node">
<title>ApiModule </title>
<polygon fill="#fb8072" stroke="#000000" points="354.047,-252 269.953,-252 269.953,-216 354.047,-216 354.047,-252"/>
<text text-anchor="middle" x="312" y="-229.8" font-family="Times,serif" font-size="14.00" fill="#000000">ApiModule </text>
</g>
<!-- SharedModule&#45;&gt;ApiModule  -->
<g id="edge3" class="edge">
<title>SharedModule&#45;&gt;ApiModule </title>
<path fill="none" stroke="#000000" stroke-dasharray="5,2" d="M249.3595,-175C273.5613,-175 297.5755,-175 297.5755,-175 297.5755,-175 297.5755,-205.9775 297.5755,-205.9775"/>
<polygon fill="#000000" stroke="#000000" points="294.0756,-205.9774 297.5755,-215.9775 301.0756,-205.9775 294.0756,-205.9774"/>
</g>
<!-- MaterialModule  -->
<g id="node5" class="node">
<title>MaterialModule </title>
<polygon fill="#fb8072" stroke="#000000" points="252.4716,-252 141.5284,-252 141.5284,-216 252.4716,-216 252.4716,-252"/>
<text text-anchor="middle" x="197" y="-229.8" font-family="Times,serif" font-size="14.00" fill="#000000">MaterialModule </text>
</g>
<!-- SharedModule&#45;&gt;MaterialModule  -->
<g id="edge4" class="edge">
<title>SharedModule&#45;&gt;MaterialModule </title>
<path fill="none" stroke="#000000" stroke-dasharray="5,2" d="M200,-187.1061C200,-187.1061 200,-205.991 200,-205.991"/>
<polygon fill="#000000" stroke="#000000" points="196.5001,-205.9909 200,-215.991 203.5001,-205.991 196.5001,-205.9909"/>
</g>
</g>
</svg>
