<?xml version="1.0" encoding="UTF-8" standalone="no"?>
<!DOCTYPE svg PUBLIC "-//W3C//DTD SVG 1.1//EN"
 "http://www.w3.org/Graphics/SVG/1.1/DTD/svg11.dtd">
<!-- Generated by graphviz version 2.40.1 (20161225.0304)
 -->
<!-- Title: dependencies Pages: 1 -->
<svg width="1207pt" height="211pt"
 viewBox="0.00 0.00 1207.00 211.00" xmlns="http://www.w3.org/2000/svg" xmlns:xlink="http://www.w3.org/1999/xlink">
<g id="graph0" class="graph" transform="scale(1 1) rotate(0) translate(4 207)">
<title>dependencies</title>
<polygon fill="#ffffff" stroke="transparent" points="-4,4 -4,-207 1203,-207 1203,4 -4,4"/>
<text text-anchor="start" x="578.5091" y="-42.4" font-family="sans-serif" font-weight="bold" font-size="14.00" fill="#000000">Legend</text>
<polygon fill="#ffffb3" stroke="transparent" points="365.5,-10 365.5,-30 385.5,-30 385.5,-10 365.5,-10"/>
<text text-anchor="start" x="389.129" y="-15.4" font-family="sans-serif" font-size="14.00" fill="#000000"> &#160;Declarations</text>
<polygon fill="#8dd3c7" stroke="transparent" points="478.5,-10 478.5,-30 498.5,-30 498.5,-10 478.5,-10"/>
<text text-anchor="start" x="502.2251" y="-15.4" font-family="sans-serif" font-size="14.00" fill="#000000"> &#160;Module</text>
<polygon fill="#80b1d3" stroke="transparent" points="564.5,-10 564.5,-30 584.5,-30 584.5,-10 564.5,-10"/>
<text text-anchor="start" x="588.2812" y="-15.4" font-family="sans-serif" font-size="14.00" fill="#000000"> &#160;Bootstrap</text>
<polygon fill="#fdb462" stroke="transparent" points="661.5,-10 661.5,-30 681.5,-30 681.5,-10 661.5,-10"/>
<text text-anchor="start" x="685.1732" y="-15.4" font-family="sans-serif" font-size="14.00" fill="#000000"> &#160;Providers</text>
<polygon fill="#fb8072" stroke="transparent" points="757.5,-10 757.5,-30 777.5,-30 777.5,-10 757.5,-10"/>
<text text-anchor="start" x="781.2258" y="-15.4" font-family="sans-serif" font-size="14.00" fill="#000000"> &#160;Exports</text>
<g id="clust1" class="cluster">
<title>cluster_ProductsModule</title>
<polygon fill="none" stroke="#000000" stroke-dasharray="1,5" points="8,-70 8,-195 1191,-195 1191,-70 8,-70"/>
</g>
<g id="clust2" class="cluster">
<title>cluster_ProductsModule_declarations</title>
<polygon fill="none" stroke="#000000" points="474,-78 474,-130 1183,-130 1183,-78 474,-78"/>
</g>
<g id="clust7" class="cluster">
<title>cluster_ProductsModule_imports</title>
<polygon fill="none" stroke="#000000" points="180,-78 180,-130 466,-130 466,-78 180,-78"/>
</g>
<g id="clust10" class="cluster">
<title>cluster_ProductsModule_providers</title>
<polygon fill="none" stroke="#000000" points="16,-78 16,-130 172,-130 172,-78 16,-78"/>
</g>
<!-- ProductCardComponent -->
<g id="node1" class="node">
<title>ProductCardComponent</title>
<polygon fill="#ffffb3" stroke="#000000" points="1175.0926,-122 1022.9074,-122 1022.9074,-86 1175.0926,-86 1175.0926,-122"/>
<text text-anchor="middle" x="1099" y="-99.8" font-family="Times,serif" font-size="14.00" fill="#000000">ProductCardComponent</text>
</g>
<!-- ProductsModule -->
<g id="node5" class="node">
<title>ProductsModule</title>
<polygon fill="#8dd3c7" stroke="#000000" points="609.0438,-187 606.0438,-191 585.0438,-191 582.0438,-187 500.9562,-187 500.9562,-151 609.0438,-151 609.0438,-187"/>
<text text-anchor="middle" x="555" y="-164.8" font-family="Times,serif" font-size="14.00" fill="#000000">ProductsModule</text>
</g>
<!-- ProductCardComponent&#45;&gt;ProductsModule -->
<g id="edge1" class="edge">
<title>ProductCardComponent&#45;&gt;ProductsModule</title>
<path fill="none" stroke="#000000" d="M1099,-122.2921C1099,-144.2057 1099,-178 1099,-178 1099,-178 619.1496,-178 619.1496,-178"/>
<polygon fill="#000000" stroke="#000000" points="619.1497,-174.5001 609.1496,-178 619.1496,-181.5001 619.1497,-174.5001"/>
</g>
<!-- ProductDashboardComponent -->
<g id="node2" class="node">
<title>ProductDashboardComponent</title>
<polygon fill="#ffffb3" stroke="#000000" points="1004.5224,-122 819.4776,-122 819.4776,-86 1004.5224,-86 1004.5224,-122"/>
<text text-anchor="middle" x="912" y="-99.8" font-family="Times,serif" font-size="14.00" fill="#000000">ProductDashboardComponent</text>
</g>
<!-- ProductDashboardComponent&#45;&gt;ProductsModule -->
<g id="edge2" class="edge">
<title>ProductDashboardComponent&#45;&gt;ProductsModule</title>
<path fill="none" stroke="#000000" d="M912,-122.1061C912,-141.3391 912,-169 912,-169 912,-169 619.2206,-169 619.2206,-169"/>
<polygon fill="#000000" stroke="#000000" points="619.2207,-165.5001 609.2206,-169 619.2206,-172.5001 619.2207,-165.5001"/>
</g>
<!-- ProductFormComponent -->
<g id="node3" class="node">
<title>ProductFormComponent</title>
<polygon fill="#ffffb3" stroke="#000000" points="801.7147,-122 646.2853,-122 646.2853,-86 801.7147,-86 801.7147,-122"/>
<text text-anchor="middle" x="724" y="-99.8" font-family="Times,serif" font-size="14.00" fill="#000000">ProductFormComponent</text>
</g>
<!-- ProductFormComponent&#45;&gt;ProductsModule -->
<g id="edge3" class="edge">
<title>ProductFormComponent&#45;&gt;ProductsModule</title>
<path fill="none" stroke="#000000" d="M724,-122.027C724,-138.3976 724,-160 724,-160 724,-160 619.4029,-160 619.4029,-160"/>
<polygon fill="#000000" stroke="#000000" points="619.4029,-156.5001 609.4029,-160 619.4029,-163.5001 619.4029,-156.5001"/>
</g>
<!-- ProductListComponent -->
<g id="node4" class="node">
<title>ProductListComponent</title>
<polygon fill="#ffffb3" stroke="#000000" points="628.1596,-122 481.8404,-122 481.8404,-86 628.1596,-86 628.1596,-122"/>
<text text-anchor="middle" x="555" y="-99.8" font-family="Times,serif" font-size="14.00" fill="#000000">ProductListComponent</text>
</g>
<!-- ProductListComponent&#45;&gt;ProductsModule -->
<g id="edge4" class="edge">
<title>ProductListComponent&#45;&gt;ProductsModule</title>
<path fill="none" stroke="#000000" d="M555,-122.1061C555,-122.1061 555,-140.991 555,-140.991"/>
<polygon fill="#000000" stroke="#000000" points="551.5001,-140.9909 555,-150.991 558.5001,-140.991 551.5001,-140.9909"/>
</g>
<!-- ProductsRoutingModule -->
<g id="node6" class="node">
<title>ProductsRoutingModule</title>
<polygon fill="#8dd3c7" stroke="#000000" points="457.661,-122 454.661,-126 433.661,-126 430.661,-122 304.339,-122 304.339,-86 457.661,-86 457.661,-122"/>
<text text-anchor="middle" x="381" y="-99.8" font-family="Times,serif" font-size="14.00" fill="#000000">ProductsRoutingModule</text>
</g>
<!-- ProductsRoutingModule&#45;&gt;ProductsModule -->
<g id="edge5" class="edge">
<title>ProductsRoutingModule&#45;&gt;ProductsModule</title>
<path fill="none" stroke="#000000" d="M381,-122.027C381,-138.3976 381,-160 381,-160 381,-160 490.8991,-160 490.8991,-160"/>
<polygon fill="#000000" stroke="#000000" points="490.8991,-163.5001 500.8991,-160 490.8991,-156.5001 490.8991,-163.5001"/>
</g>
<!-- SharedModule -->
<g id="node7" class="node">
<title>SharedModule</title>
<polygon fill="#8dd3c7" stroke="#000000" points="286.4231,-122 283.4231,-126 262.4231,-126 259.4231,-122 187.5769,-122 187.5769,-86 286.4231,-86 286.4231,-122"/>
<text text-anchor="middle" x="237" y="-99.8" font-family="Times,serif" font-size="14.00" fill="#000000">SharedModule</text>
</g>
<!-- SharedModule&#45;&gt;ProductsModule -->
<g id="edge6" class="edge">
<title>SharedModule&#45;&gt;ProductsModule</title>
<path fill="none" stroke="#000000" d="M237,-122.1061C237,-141.3391 237,-169 237,-169 237,-169 490.6952,-169 490.6952,-169"/>
<polygon fill="#000000" stroke="#000000" points="490.6952,-172.5001 500.6952,-169 490.6951,-165.5001 490.6952,-172.5001"/>
</g>
<!-- ProductService -->
<g id="node8" class="node">
<title>ProductService</title>
<ellipse fill="#fdb462" stroke="#000000" cx="94" cy="-104" rx="70.0616" ry="18"/>
<text text-anchor="middle" x="94" y="-99.8" font-family="Times,serif" font-size="14.00" fill="#000000">ProductService</text>
</g>
<!-- ProductService&#45;&gt;ProductsModule -->
<g id="edge7" class="edge">
<title>ProductService&#45;&gt;ProductsModule</title>
<path fill="none" stroke="#000000" d="M94,-122.2921C94,-144.2057 94,-178 94,-178 94,-178 490.7618,-178 490.7618,-178"/>
<polygon fill="#000000" stroke="#000000" points="490.7619,-181.5001 500.7618,-178 490.7618,-174.5001 490.7619,-181.5001"/>
</g>
</g>
</svg>
